<?xml version="1.0" standalone="no"?><!DOCTYPE svg PUBLIC "-//W3C//DTD SVG 1.1//EN" "http://www.w3.org/Graphics/SVG/1.1/DTD/svg11.dtd"><svg t="1663744873465" class="icon" viewBox="0 0 1024 1024" version="1.1" xmlns="http://www.w3.org/2000/svg" p-id="5082" xmlns:xlink="http://www.w3.org/1999/xlink" width="200" height="200"><path d="M405.333333 85.333333H192C145.066667 85.333333 106.666667 123.733333 106.666667 170.666667v213.333333c0 46.933333 38.4 85.333333 85.333333 85.333333h213.333333c46.933333 0 85.333333-38.4 85.333334-85.333333V170.666667c0-46.933333-38.4-85.333333-85.333334-85.333334zM853.333333 533.333333H640c-46.933333 0-85.333333 38.4-85.333333 85.333334v213.333333c0 46.933333 38.4 85.333333 85.333333 85.333333h213.333333c46.933333 0 85.333333-38.4 85.333334-85.333333V618.666667c0-46.933333-38.4-85.333333-85.333334-85.333334zM448 846.933333C313.6 814.933333 209.066667 710.4 179.2 576c0-17.066667-14.933333-32-32-32s-32 14.933333-32 32h-2.133333c29.866667 164.266667 157.866667 296.533333 320 330.666667 4.266667 2.133333 8.533333 2.133333 12.8 2.133333 17.066667 0 32-14.933333 32-32s-12.8-29.866667-29.866667-29.866667zM597.333333 157.866667c134.4 29.866667 238.933333 134.4 268.8 268.8h2.133334c0 17.066667 14.933333 32 32 32s32-14.933333 32-32c0-4.266667-2.133333-8.533333-2.133334-12.8-36.266667-164.266667-166.4-290.133333-330.666666-320-17.066667 0-32 14.933333-32 32s12.8 32 29.866666 32z" p-id="5083" fill="#606266"></path></svg>