<?xml version="1.0" standalone="no"?><!DOCTYPE svg PUBLIC "-//W3C//DTD SVG 1.1//EN"
        "http://www.w3.org/Graphics/SVG/1.1/DTD/svg11.dtd">
<svg t="1645067402828" class="icon" viewBox="0 0 1024 1024" version="1.1" xmlns="http://www.w3.org/2000/svg" p-id="4455"
     width="200" height="200">
    <defs>
        <style type="text/css"></style>
    </defs>
    <path d="M81.6 906.816V117.12c0-9.088 8.32-16.512 18.624-16.512h823.552c10.24 0 18.624 7.424 18.624 16.512V906.88c0 9.088-8.32 16.512-18.624 16.512H100.224c-10.24 0-18.624-7.424-18.624-16.512z m697.664-408.768a18.688 18.688 0 0 0-18.624-18.688H569.536a66.304 66.304 0 0 0-115.072 0H266.816a18.688 18.688 0 0 0-18.624 18.688v28.608c0 10.24 8.32 18.624 18.624 18.624H454.4a66.368 66.368 0 0 0 115.328 0h190.976c10.24 0 18.624-8.32 18.624-18.624v-28.608z m-531.84-203.84c0 10.24 8.32 18.624 18.56 18.624H588.16a66.368 66.368 0 0 0 115.2 0h56.512c10.304 0 18.688-8.32 18.688-18.624V265.6a18.688 18.688 0 0 0-18.688-18.688h-56.448a66.368 66.368 0 0 0-115.2 0H265.984a18.688 18.688 0 0 0-18.688 18.688v28.608z m0 464.832c0 10.368 8.32 18.688 18.56 18.688h56.576a66.368 66.368 0 0 0 115.2 0h322.048c10.304 0 18.688-8.32 18.688-18.688v-28.544a18.688 18.688 0 0 0-18.688-18.688H437.76a66.368 66.368 0 0 0-115.2 0h-56.512a18.688 18.688 0 0 0-18.688 18.688v28.544z"
          p-id="4456" fill="#909399"></path>
</svg>
